<svg xmlns="http://www.w3.org/2000/svg" xmlns:xlink="http://www.w3.org/1999/xlink" id="Layer_1" x="0px" y="0px" viewBox="0 0 180 37.93" style="enable-background:new 0 0 180 37.93;" xml:space="preserve"><style type="text/css">	.st0{fill-rule:evenodd;clip-rule:evenodd;fill:#004B8F;}	.st1{fill-rule:evenodd;clip-rule:evenodd;fill:#009D5D;}</style><g>	<g>		<path class="st0" d="M177.07,35.17c-0.53,0.2-1.52,0.63-3.51,1.28c-3.91,1.27-7.76,1.66-11.76,0.87c-1.49-0.3-2.68-0.71-3.83-1.39   c-2.06-1.21-3.81-2.82-4.89-4.84c-1.09-2.04-1.58-4.37-1.58-6.75c0-2.03,0.37-3.93,1.12-5.74c0.76-1.85,1.94-3.66,3.43-5.05   c1.38-1.3,3.24-2.22,5.18-2.83c1.92-0.61,4.06-0.66,6.3-0.61c1.66,0.04,3.21,0.38,4.69,0.71c1.62,0.36,2.44,0.83,3.4-0.03h1.17   v7.81h-1.27c-0.38-1.69-0.68-2.52-1.59-3.87c-0.79-1.17-1.66-1.9-2.7-2.42c-1.03-0.51-2.27-0.87-3.82-0.87   c-3.05,0-5.78,0.88-7.78,3.27c-2,2.39-3.04,5.7-3.03,9.61c0.01,3.57,1,6.57,3.14,8.73c2.02,2.03,4.3,3.02,7.14,3.13   c1.74,0.07,5.03-0.95,5.53-1.38v-5.89c0.11-1.89-1.75-2.4-2.52-2.42l-2.44-0.07l-0.01-1.06L180,25.34v1.09   c-0.89-0.02-2.93,0.18-2.93,2.51V35.17z"></path>		<path class="st0" d="M133.74,36.37c2.68,0.07,5.83-1.27,7.5-3.52c1.65-2.23,2.46-4.7,2.42-8.44c-0.04-3.92-1.07-7.04-3.05-9.39   c-1.94-2.31-4.62-3.58-7.43-3.58c-2.68,0-5.51,1.03-7.21,3.12c-1.75,2.15-2.87,5.3-2.87,8.92c0,3.94,1.26,6.97,3.18,9.31   C128.13,35.02,130.93,36.3,133.74,36.37 M133.49,10.08c1.87,0,3.65,0.23,5.37,0.73c1.79,0.52,3.48,1.19,4.82,2.27   c1.65,1.33,3.4,3.22,4.06,5.03c0.64,1.72,0.99,1.78,1.08,5.8c0.04,1.96-0.68,4.14-1.49,5.88c-2.33,5.03-8.62,7.91-13.97,7.91   c-3.59,0-7.43-0.72-10.29-3.04c-1.59-1.29-3.17-3.04-3.97-4.78c-0.8-1.74-1.08-3.96-1.08-5.92c0-1.97,0.68-4.28,1.49-6.03   c0.81-1.75,2.16-3.18,3.68-4.51c1.33-1.17,3.18-1.87,4.89-2.48C129.8,10.3,131.6,10.08,133.49,10.08z"></path>		<path class="st0" d="M109.52,33.06c0,0.89,0.31,2.09,1.23,2.09h5.85c1.11,0,2.21-0.51,3.62-2.09l1.17,1.17l-1.49,2.86h-19.14   v-1.21h1.53c0.33,0,1.52-0.18,1.85-0.62c0.57-0.76,0.68-1.24,0.68-2.2V14.53c0-1.21-0.23-1.45-0.51-1.82   c-0.5-0.66-1.58-0.79-2.23-0.79h-1.33v-1.16c0-0.09,2.18,0,2.51,0.04l11.32-0.04v1.16h-1.74c-2.3,0-3.32,0.43-3.32,2.75V33.06z"></path>		<path class="st0" d="M66.41,22.5c1.53-0.06,3.82,0.18,6.3,0.73v-9.29c-0.19-1.12-1.94-2.02-3.3-2.02h-0.24v-1.16h7.49l16.21,18.61   c0.19,0.22,0.4,0.39,0.4-0.1v-13.2c0-2.88-0.44-4.16-2.71-4.16h-1.52v-1.16h10.17v1.16h-0.86c-1.67,0-2.84,0.81-2.84,3.2v21.97   h-2.4L75.29,16.62c-0.2-0.23-0.32-0.2-0.32,0.39v6.8c2.16,0.63,4.34,1.51,6.17,2.63v0.79c-1.82-0.96-3.87-1.68-6.17-2.14v6.92   c0,3.14,1,3.87,2.97,3.87h1.31v1.21H69.18v-1.21h0.94c2.6,0,2.6-2.07,2.6-4.07v-7.07c-1.81-0.22-3.77-0.28-5.85-0.2   c-8.85,0.29-14.54,5.92-23.48,4.06c1.51,4.38,5.08,7.78,9.62,7.78c5.75,0,9.74-3.57,10.2-10.8l5.03-0.49   c-0.78,7.05-6.57,12.64-15.23,12.64c-8.23,0-14.64-4.04-15.4-12.12c6.38,1.65,9.79,0.83,13.13-0.16   C54.35,24.37,58.06,22.5,66.41,22.5"></path>		<path class="st0" d="M21.9,0c1.74-0.02,6.78,0.97,8.61,1.68c1.82,0.71,3.18,1.02,3.63,0.37h0.82l0.45,8.4h-1.09   c-2.75-7.02-8.67-8.92-12.91-8.92C10.2,1.52,5.62,9.71,5.46,18.3c-0.18,9.57,7.25,18.27,16.18,18.18   c8.57-0.08,11.73-4.25,14.33-8.53h1.18c-0.7,2.07-2.67,7.19-3.73,8.43c-4.46-0.13-6.8,1.47-11.86,1.55   C10.18,38.1-0.27,31.46,0.01,19.39C0.31,5.96,10.06,0.15,21.9,0"></path>		<path class="st1" d="M42.76,22.25c0.47-6.36,3.76-10.75,10.31-10.75c3.57,0,7.79,2.6,9.43,7.68c-9.65-1.61-12.32,3.21-23.42,4.09   c-9.25,0.21-12.13-1.75-14.23-2.69v0.83c3.55,1.97,8.22,3.93,15.17,3.93c7.68,0.5,15.2-3.53,19.85-3.95   c3.27-0.28,5.92-0.03,8.52,0.86c-0.63-6.86-6.22-12.22-15.31-12.17c-7.67,0.04-14.62,4.85-15.26,12.68   C39.52,22.74,41.01,22.53,42.76,22.25"></path>	</g></g></svg>